<svg xmlns="http://www.w3.org/2000/svg" xmlns:xlink="http://www.w3.org/1999/xlink" width="77.586" height="93.058" viewBox="0 0 77.586 93.058">
  <defs>
    <clipPath id="clip-path">
      <rect width="77.586" height="93.058" fill="none"/>
    </clipPath>
  </defs>
  <g id="award" clip-path="url(#clip-path)">
    <path id="award-2" data-name="award" d="M83.68,84.47A153.68,153.68,0,0,1,64,72.44C66.88,68.65,70.4,61.5,67.41,51c-3.64-12.73-7.74-16.6-9.85-17.78l-3.09-1.71-3,1.86a27.51,27.51,0,0,0-9.19,10.52c-.57-1.09-.9-1.74-.91-1.77a6,6,0,0,0-2-2.25c1.9-4.38,3.11-11.06-.56-19.45C33.54,8.32,29,5,26.71,4.14L23.42,2.86,20.7,5.11c-.43.35-10.48,8.83-8.68,22.18,2.24,16.68,17.61,19.9,18.26,20l.29.06.06.14c.16.32,1.85,3.66,4.44,8.14-.73-.2-1.48-.39-2.27-.54-13-2.54-18.3-.65-20.31.7l-2.93,2,.3,3.51c.05.56,1.3,13.65,13.3,19.78A23.7,23.7,0,0,0,34,83.8a24.71,24.71,0,0,0,16-6.34l.58-.56c9.76,9.27,27,17.93,27.72,18.3a6,6,0,1,0,5.36-10.73ZM53.69,48a57.349,57.349,0,0,1,2.18,6.33A12.92,12.92,0,0,1,55.72,63a11.26,11.26,0,0,1-3.82-8.76A12,12,0,0,1,53.69,48ZM28.86,33.86a11.31,11.31,0,0,1-4.95-8.17,12,12,0,0,1,.94-6.42,55.489,55.489,0,0,1,3,6A12.88,12.88,0,0,1,28.86,33.86Zm-.25,36.53A12,12,0,0,1,23.87,66a54.35,54.35,0,0,1,6.63.94A13,13,0,0,1,38.15,71,11.28,11.28,0,0,1,28.61,70.39Z" transform="translate(-9.56 -2.86)"/>
  </g>
</svg>
