<svg xmlns="http://www.w3.org/2000/svg" xmlns:xlink="http://www.w3.org/1999/xlink" width="86.503" height="81.031" viewBox="0 0 86.503 81.031">
  <defs>
    <clipPath id="clip-path">
      <rect width="86.503" height="81.031" fill="none"/>
    </clipPath>
  </defs>
  <g id="follow" clip-path="url(#clip-path)">
    <path id="follow-2" data-name="follow" d="M-2073.747,829c-9.8,0-22.25,1.06-22.25-8.75,0-6.6,5.659-20.991,12.34-29.67a22.5,22.5,0,0,1-11.252-26.988A22.5,22.5,0,0,1-2070,748.275a22.5,22.5,0,0,1,19,22.222,22.492,22.492,0,0,1-12.7,20.26c6.62,8.7,12.2,22.93,12.2,29.49,0,8.067-8.417,8.783-16.858,8.783C-2070.179,829.031-2072.006,829-2073.747,829ZM-2084,770.5a10.5,10.5,0,0,0,10.5,10.5,10.509,10.509,0,0,0,10.5-10.5,10.5,10.5,0,0,0-10.5-10.5A10.5,10.5,0,0,0-2084,770.5Zm49.63,31.54v-6.87h-7.879a6,6,0,0,1-6-6,6,6,0,0,1,6-6h7.879v-7.92a6,6,0,0,1,6-6,6,6,0,0,1,6,6v7.92h6.87a6,6,0,0,1,6,6,6,6,0,0,1-6,6h-6.87v6.87a6,6,0,0,1-6,6A6,6,0,0,1-2034.367,802.037Z" transform="translate(2096 -748)"/>
  </g>
</svg>
