<svg xmlns="http://www.w3.org/2000/svg" xmlns:xlink="http://www.w3.org/1999/xlink" width="82.299" height="74.981" viewBox="0 0 82.299 74.981">
  <defs>
    <clipPath id="clip-path">
      <rect width="82.299" height="74.981" fill="none"/>
    </clipPath>
  </defs>
  <g id="heart" clip-path="url(#clip-path)">
    <path id="heart-2" data-name="heart" d="M49,86.83a5.94,5.94,0,0,1-2.12-.39c-.94-.35-9.44-3.82-21.16-16.92C19.54,62.61,5.46,44.84,8.2,29A20.31,20.31,0,0,1,19,14.32c13.17-7.15,24.05,2.79,30,9.88,5.92-7.09,16.81-17,30-9.88A20.31,20.31,0,0,1,89.8,29c2.74,15.84-11.34,33.61-17.52,40.52C60.56,82.62,52.06,86.09,51.12,86.44A5.94,5.94,0,0,1,49,86.83ZM28.18,24a7.1,7.1,0,0,0-3.44.92A8.34,8.34,0,0,0,20,31.06c-1.25,7.17,4.5,19.13,14.63,30.46C41.11,68.73,46.25,72.4,49,74.07c2.73-1.65,7.88-5.33,14.34-12.55C73.47,50.19,79.22,38.23,78,31.06a8.34,8.34,0,0,0-4.71-6.19h0c-5-2.72-10.38.51-18,10.79a26.74,26.74,0,0,1-1.93,2.45,6,6,0,0,1-8.72,0,26.741,26.741,0,0,1-1.93-2.45C36.81,27.68,32.26,24,28.18,24Z" transform="translate(-7.851 -11.849)"/>
  </g>
</svg>
