<svg xmlns="http://www.w3.org/2000/svg" xmlns:xlink="http://www.w3.org/1999/xlink" width="87.049" height="87.059" viewBox="0 0 87.049 87.059">
  <defs>
    <clipPath id="clip-path">
      <rect width="87.049" height="87.059" fill="none"/>
    </clipPath>
  </defs>
  <g id="link" clip-path="url(#clip-path)">
    <path id="link-2" data-name="link" d="M89.49,63.35l-18-18a12,12,0,0,0-17,0l-.25.26-1-1,.26-.26a12,12,0,0,0,0-17l-18-18a12,12,0,0,0-17,0l-9,9a12,12,0,0,0,0,17l18,18a12,12,0,0,0,17,0l.25-.26,1,1-.26.26a12,12,0,0,0,0,17l18,18a12,12,0,0,0,17,0l9-9a12,12,0,0,0,0-17ZM36,44.83l-18-18,9-9,18,18-.26.26-4.5-4.5a6,6,0,1,0-8.48,8.49l4.5,4.5Zm36,36-18-18,.26-.25,4.5,4.5a6,6,0,1,0,8.48-8.49l-4.5-4.5.26-.26,18,18Z" transform="translate(-5.971 -5.821)"/>
  </g>
</svg>
