<svg xmlns="http://www.w3.org/2000/svg" xmlns:xlink="http://www.w3.org/1999/xlink" width="84.5" height="84.5" viewBox="0 0 84.5 84.5">
  <defs>
    <clipPath id="clip-path">
      <rect width="84.5" height="84.5" fill="none"/>
    </clipPath>
  </defs>
  <g id="loading" clip-path="url(#clip-path)">
    <path id="loading-2" data-name="loading" d="M-2331.5,826.5v-9a6,6,0,0,1,6-6,6,6,0,0,1,6,6v9a6,6,0,0,1-6,6A6,6,0,0,1-2331.5,826.5Zm25.94-7.069-6.36-6.37a6,6,0,0,1,.147-8.333,6,6,0,0,1,8.333-.147l6.36,6.359a6,6,0,0,1,.006,8.485,5.981,5.981,0,0,1-4.246,1.76A5.982,5.982,0,0,1-2305.56,819.43Zm-48.365-.185a6,6,0,0,1,0-8.485l6.36-6.359a6,6,0,0,1,8.333.147,6,6,0,0,1,.147,8.333l-6.359,6.37a5.98,5.98,0,0,1-4.24,1.755A5.982,5.982,0,0,1-2353.925,819.245ZM-2361,796.82a6,6,0,0,1-6-6,6,6,0,0,1,6-6h9a6,6,0,0,1,6,6,6,6,0,0,1-6,6Zm63.5-.32a6,6,0,0,1-6-6,6,6,0,0,1,6-6h9a6,6,0,0,1,6,6,6,6,0,0,1-6,6Zm-50.56-19.75-6.359-6.37a6,6,0,0,1,.147-8.333,6,6,0,0,1,8.333-.147l6.36,6.359a6,6,0,0,1,0,8.485,5.98,5.98,0,0,1-4.245,1.76A5.982,5.982,0,0,1-2348.061,776.75Zm36.331-2.767a6,6,0,0,1,1.31-6.544l6.359-6.36a6,6,0,0,1,5.874-1.723,6,6,0,0,1,4.329,4.329,6,6,0,0,1-1.722,5.874l-6.36,6.369a6,6,0,0,1-4.24,1.76A6,6,0,0,1-2311.729,773.984ZM-2331,763v-9a6,6,0,0,1,6-6,6,6,0,0,1,6,6v9a6,6,0,0,1-6,6A6,6,0,0,1-2331,763Z" transform="translate(2367 -748)"/>
  </g>
</svg>
