<svg xmlns="http://www.w3.org/2000/svg" xmlns:xlink="http://www.w3.org/1999/xlink" width="68.79" height="84" viewBox="0 0 68.79 84">
  <defs>
    <clipPath id="clip-path">
      <rect width="68.79" height="84" fill="none"/>
    </clipPath>
  </defs>
  <g id="reply" clip-path="url(#clip-path)">
    <path id="reply-2" data-name="reply" d="M54,96a6,6,0,0,1-5.69-7.9c3-9,1.63-16.18-4.18-22a29,29,0,0,0-6.8-5L22.24,76.24A6,6,0,0,1,12,72V18a6,6,0,0,1,6-6H72a6,6,0,0,1,4.24,10.24L63,35.53c21,18.4,18.59,35,16.38,41.66C75.65,88.27,65.23,96,54,96ZM36,48a5.91,5.91,0,0,1,1.9.31,40.79,40.79,0,0,1,14.72,9.32,30.24,30.24,0,0,1,9.17,23.86A16,16,0,0,0,68,73.4c3.29-9.88-3.11-21.76-17.56-32.6a6,6,0,0,1-.64-9L57.51,24H24V57.51l7.76-7.75A6,6,0,0,1,36,48Z" transform="translate(-12 -12)"/>
  </g>
</svg>
