<svg xmlns="http://www.w3.org/2000/svg" xmlns:xlink="http://www.w3.org/1999/xlink" width="72.818" height="81" viewBox="0 0 72.818 81">
  <defs>
    <clipPath id="clip-path">
      <rect width="72.818" height="81" fill="none"/>
    </clipPath>
  </defs>
  <g id="settings" clip-path="url(#clip-path)">
    <path id="settings-2" data-name="settings" d="M83.77,60.27,77.59,54.1A27.749,27.749,0,0,0,78,49.33,28.731,28.731,0,0,0,77.49,44l5.43-5.43a8,8,0,0,0,0-11.31L81.5,25.81a8,8,0,0,0-11.31,0l-2,2A28.35,28.35,0,0,0,58.5,22.3V16.83a8,8,0,0,0-8-8h-2a8,8,0,0,0-8,8V22.3a28.24,28.24,0,0,0-9.78,5.63l-2.26-2.26a8,8,0,0,0-11.32,0l-1.41,1.41a8,8,0,0,0,0,11.31l5.75,5.76a28.07,28.07,0,0,0,0,10.12l-5.86,5.86a8,8,0,0,0,0,11.31L17,72.86a8,8,0,0,0,11.31,0l2.25-2.26A28.5,28.5,0,0,0,41,76.54v5.29a8,8,0,0,0,8,8h2a8,8,0,0,0,8-8V76.2a28.44,28.44,0,0,0,9.55-5.69L71,73a8,8,0,0,0,11.32,0l1.41-1.41a8,8,0,0,0,.04-11.32ZM49.5,65.83A16.5,16.5,0,1,1,66,49.33,16.5,16.5,0,0,1,49.5,65.83Z" transform="translate(-13.279 -8.83)"/>
  </g>
</svg>
