<svg xmlns="http://www.w3.org/2000/svg" xmlns:xlink="http://www.w3.org/1999/xlink" width="66.091" height="93.118" viewBox="0 0 66.091 93.118">
  <defs>
    <clipPath id="clip-path">
      <rect width="66.091" height="93.118" fill="none"/>
    </clipPath>
  </defs>
  <g id="share" clip-path="url(#clip-path)">
    <path id="share-2" data-name="share" d="M63,65.83a14.87,14.87,0,0,0-5.47,1l-12-12a17,17,0,0,0,0-11.15l12-12A14.9,14.9,0,1,0,49,23.15L37.91,34.44a17.25,17.25,0,1,0,0,29.79L49.05,75.37a14.78,14.78,0,0,0-1,5.46,15,15,0,1,0,15-15Zm0-51a3,3,0,1,1-3,3,3,3,0,0,1,3-3ZM24,49.33a5.25,5.25,0,1,1,5.25,5.25A5.25,5.25,0,0,1,24,49.33Zm39,34.5a3,3,0,1,1,3-3A3,3,0,0,1,63,83.83Z" transform="translate(-11.959 -2.712)"/>
  </g>
</svg>
