<svg xmlns="http://www.w3.org/2000/svg" xmlns:xlink="http://www.w3.org/1999/xlink" width="81.04" height="81.002" viewBox="0 0 81.04 81.002">
  <defs>
    <clipPath id="clip-path">
      <rect width="81.04" height="81.002" fill="none"/>
    </clipPath>
  </defs>
  <g id="star" clip-path="url(#clip-path)">
    <path id="star-2" data-name="star" d="M49.5,20,56,39.56H78.83L60.82,54l8.23,24.7L49.5,63,30,78.66,38.18,54l-18-14.4H43L49.5,20M78.83,39.56h0M49.5,8.83a11.18,11.18,0,0,0-10.6,7.64l-4,11.92H20.17a11.17,11.17,0,0,0-7,19.89L25.1,57.82,19.35,75.13A11.17,11.17,0,0,0,36.93,87.38l12.57-10,12.57,10A11.17,11.17,0,0,0,79.65,75.13L73.88,57.82l11.81-9.44a11.17,11.17,0,0,0-6.86-20H64.07l-4-11.92A11.18,11.18,0,0,0,49.5,8.83Z" transform="translate(-8.98 -8.83)"/>
  </g>
</svg>
