<svg xmlns="http://www.w3.org/2000/svg" xmlns:xlink="http://www.w3.org/1999/xlink" width="75.001" height="66.001" viewBox="0 0 75.001 66.001">
  <defs>
    <clipPath id="clip-path">
      <rect width="75.001" height="66.001" fill="none"/>
    </clipPath>
  </defs>
  <g id="video" clip-path="url(#clip-path)">
    <path id="video-2" data-name="video" d="M-539,978a6,6,0,0,1-6-6V918a6,6,0,0,1,6-6h63a6,6,0,0,1,6,6v54a6,6,0,0,1-6,6Zm6-12h51V924h-51Zm19.778-10.076A3,3,0,0,1-515,953.19V936.81a3,3,0,0,1,1.778-2.734,3,3,0,0,1,3.222.5l9.1,8.2a3,3,0,0,1,.974,2.239,3,3,0,0,1-1.013,2.221l-9.06,8.18a3,3,0,0,1-2,.763A3,3,0,0,1-513.222,955.923Z" transform="translate(545 -912)"/>
  </g>
</svg>
